<?xml version="1.0" encoding="UTF-8" standalone="no"?>
<svg width="104px" height="104px" viewBox="0 0 104 104" version="1.1" xmlns="http://www.w3.org/2000/svg" xmlns:xlink="http://www.w3.org/1999/xlink" xmlns:sketch="http://www.bohemiancoding.com/sketch/ns">
    <!-- Generator: Sketch 3.4.2 (15855) - http://www.bohemiancoding.com/sketch -->
    <title>analysis_section</title>
    <desc>Created with Sketch.</desc>
    <defs></defs>
    <g id="desktop" stroke="none" stroke-width="1" fill="none" fill-rule="evenodd" sketch:type="MSPage">
        <g id="Desktop-Portrait" sketch:type="MSArtboardGroup" transform="translate(-121.000000, -1209.000000)">
            <g id="phone_nav" sketch:type="MSLayerGroup" transform="translate(123.000000, 1209.000000)">
                <g id="analysis_section" transform="translate(0.000000, 2.000000)" sketch:type="MSShapeGroup">
                    <g id="analyist_icon" transform="translate(25.487216, 20.423729)" fill="#684E21">
                        <path d="M8.26263305,24.4089162 C8.85177496,27.6000092 1.64712889,30.4016253 1.64712889,30.4016253 L1.90714124,34.44204 C4.46283228,33.9200099 9.8342267,33.723635 9.8342267,33.723635 L10.6208464,30.4016253 C8.13262687,30.2068868 5.74150062,30.9236554 5.74150062,30.9236554 C5.74150062,30.9236554 9.08052001,28.4231476 10.3591884,26.6901386 C12.0640795,24.3745506 12.7832276,19.3931725 8.13098123,19.1297028 C3.48038054,18.8711424 0.00641802643,24.1487194 0.00641802643,24.1487194 L1.72282868,26.3873939 C5.1178001,21.867497 7.85780369,22.217699 8.26263305,24.4089162" id="Fill-16"></path>
                        <path d="M6.20886459,6.52292148 C5.42224494,9.00051885 5.35641903,14.796853 5.35641903,14.796853 C6.79800651,15.3843414 8.76455563,14.5366562 8.76455563,14.5366562 C7.51880024,8.0873753 9.41952346,0.659492563 9.41952346,0.659492563 L6.66635468,0 C6.47052259,2.72797544 1.62408982,8.2821138 1.62408982,8.2821138 L3.39151556,9.71565099 C4.76727712,8.67322726 6.20886459,6.52292148 6.20886459,6.52292148" id="Fill-18"></path>
                        <path d="M9.41985259,42.6272755 L12.3030275,39.7340178 L11.305765,35.9341624 L2.33369315,38.5786785 L2.58383161,41.0562759 L8.48347899,40.0662188 L5.07534239,43.2867681 L5.52295859,45.5188967 C6.13513957,45.3536145 12.1615018,44.4813824 8.81425419,48.739446 C6.38363239,51.8339881 1.65568625,46.870611 1.65568625,46.870611 L0.673234516,48.0799535 C0.673234516,48.0799535 5.83398602,55.6813008 10.5586409,50.6393737 C16.0090264,44.826675 9.41985259,42.6272755 9.41985259,42.6272755" id="Fill-20"></path>
                        <path d="M19.046234,6.81224725 L19.046234,12.7771366 L45.0919017,12.7771366 L45.0919017,5.44907776 L19.046234,6.81224725 Z" id="Fill-22"></path>
                        <path d="M19.046234,29.1425345 L45.0919017,29.1425345 L45.0919017,21.8128393 L19.046234,23.1776452 L19.046234,29.1425345 Z" id="Fill-24"></path>
                        <path d="M19.046234,45.5071143 L45.0919017,45.5071143 L45.0919017,38.177419 L19.046234,39.5422249 L19.046234,45.5071143 Z" id="Fill-26"></path>
                    </g>
                    <circle id="Oval-1" stroke="#684E21" stroke-width="4" cx="50" cy="50" r="50"></circle>
                </g>
            </g>
        </g>
    </g>
</svg>