<?xml version="1.0" encoding="UTF-8" standalone="no"?>
<svg width="122px" height="122px" viewBox="0 0 122 122" version="1.1" xmlns="http://www.w3.org/2000/svg" xmlns:xlink="http://www.w3.org/1999/xlink" xmlns:sketch="http://www.bohemiancoding.com/sketch/ns">
    <!-- Generator: Sketch 3.4 (15575) - http://www.bohemiancoding.com/sketch -->
    <title>analysis_btn</title>
    <desc>Created with Sketch.</desc>
    <defs></defs>
    <g id="desktop" stroke="none" stroke-width="1" fill="none" fill-rule="evenodd" sketch:type="MSPage">
        <g id="Desktop-Portrait" sketch:type="MSArtboardGroup" transform="translate(-112.000000, -1213.000000)">
            <g id="phone_nav" sketch:type="MSLayerGroup" transform="translate(114.000000, 1209.000000)">
                <g id="analysis_btn" transform="translate(0.000000, 6.000000)">
                    <text id="ANALYSIS" sketch:type="MSTextLayer" font-family="SF Compact Display" font-size="16.9557147" font-style="condensed" font-weight="633" fill="#684E21">
                        <tspan x="20" y="93.9795918">ANALYSIS</tspan>
                    </text>
                    <g id="analyist_icon" transform="translate(33.627119, 17.000000)" fill="#684E21" sketch:type="MSShapeGroup">
                        <path d="M8.55255,25.2653694 C9.16236356,28.5684306 1.70492288,31.468349 1.70492288,31.468349 L1.97405847,35.6505327 C4.61942288,35.1101857 10.1792873,34.9069204 10.1792873,34.9069204 L10.9935076,31.468349 C8.4179822,31.2667776 5.94295678,32.0086959 5.94295678,32.0086959 C5.94295678,32.0086959 9.39913475,29.420451 10.7226686,27.6266347 C12.4873805,25.229798 13.2317619,20.0736347 8.41627881,19.8009204 C3.60249915,19.5332878 0.00664322034,24.9960429 0.00664322034,24.9960429 L1.78327881,27.3132673 C5.29737203,22.6347776 8.1335161,22.9972673 8.55255,25.2653694" id="Fill-16"></path>
                        <path d="M6.42671949,6.75179592 C5.61249915,9.31632653 5.54436356,15.3160408 5.54436356,15.3160408 C7.03653305,15.9241429 9.0720839,15.0467143 9.0720839,15.0467143 C7.7826178,8.37114286 9.75003305,0.682632653 9.75003305,0.682632653 L6.90026186,0 C6.69755847,2.82369388 1.68107542,8.57271429 1.68107542,8.57271429 L3.5105161,10.056551 C4.93455,8.97755102 6.42671949,6.75179592 6.42671949,6.75179592" id="Fill-18"></path>
                        <path d="M9.75037373,44.1229694 L12.7347127,41.1281939 L11.7024585,37.1950102 L2.41557712,39.9323163 L2.67449237,42.4968469 L8.78114492,41.472051 L5.25342458,44.805602 L5.71674661,47.116051 C6.35040763,46.9449694 12.5882212,46.0421327 9.12352627,50.449602 C6.60761949,53.6527245 1.71378051,48.5151939 1.71378051,48.5151939 L0.69685678,49.7669694 C0.69685678,49.7669694 6.03868729,57.6350306 10.9291195,52.4161939 C16.5707466,46.3995408 9.75037373,44.1229694 9.75037373,44.1229694" id="Fill-20"></path>
                        <path d="M19.7145229,7.05127347 L19.7145229,13.2254571 L46.6740737,13.2254571 L46.6740737,5.64027347 L19.7145229,7.05127347 Z" id="Fill-22"></path>
                        <path d="M19.7145229,30.1650796 L46.6740737,30.1650796 L46.6740737,22.578202 L19.7145229,23.9908959 L19.7145229,30.1650796 Z" id="Fill-24"></path>
                        <path d="M19.7145229,47.1038551 L46.6740737,47.1038551 L46.6740737,39.5169776 L19.7145229,40.9296714 L19.7145229,47.1038551 Z" id="Fill-26"></path>
                    </g>
                    <circle id="Oval-1" stroke="#684E21" stroke-width="4" sketch:type="MSShapeGroup" cx="59" cy="59" r="59"></circle>
                </g>
            </g>
        </g>
    </g>
</svg>