<?xml version="1.0" encoding="utf-8"?>
<!-- Generator: Adobe Illustrator 19.1.0, SVG Export Plug-In . SVG Version: 6.00 Build 0)  -->
<svg version="1.1" id="Layer_1" xmlns="http://www.w3.org/2000/svg" xmlns:xlink="http://www.w3.org/1999/xlink" x="0px" y="0px"
	 viewBox="0 0 32 32" enable-background="new 0 0 32 32" xml:space="preserve">
<path fill="#FFFFFF" d="M16,0C7.2,0,0,7.2,0,16c0,8.8,7.2,16,16,16c8.8,0,16-7.2,16-16C32,7.2,24.8,0,16,0z M16.2,22.8
	c-0.6,0-9.5-8.1-9.5-8.6c0-0.5,2.2-3,2.8-3c0.5,0,6.2,7.7,6.6,7.7c0.4,0,5.8-7.7,6.4-7.7c0.6,0,2.2,1.5,2.2,2
	C24.7,13.8,16.8,22.8,16.2,22.8z"/>
</svg>
