<?xml version="1.0" encoding="UTF-8" standalone="no"?>
<svg width="109px" height="104px" viewBox="0 0 109 104" version="1.1" xmlns="http://www.w3.org/2000/svg" xmlns:xlink="http://www.w3.org/1999/xlink" xmlns:sketch="http://www.bohemiancoding.com/sketch/ns">
    <!-- Generator: Sketch 3.4.2 (15855) - http://www.bohemiancoding.com/sketch -->
    <title>planning_section</title>
    <desc>Created with Sketch.</desc>
    <defs>
        <path id="path-1" d="M0,0.692183673 L56.224285,0.692183673 L56.224285,54.8979592 L0,54.8979592"></path>
    </defs>
    <g id="desktop" stroke="none" stroke-width="1" fill="none" fill-rule="evenodd" sketch:type="MSPage">
        <g id="Desktop-Portrait" sketch:type="MSArtboardGroup" transform="translate(-287.000000, -1208.000000)">
            <g id="phone_nav" sketch:type="MSLayerGroup" transform="translate(123.000000, 1209.000000)">
                <g id="planning_section" transform="translate(166.000000, 1.000000)">
                    <g id="planning_icon" transform="translate(28.538489, 21.000000)">
                        <mask id="mask-2" sketch:name="Clip 2" fill="white">
                            <use xlink:href="#path-1"></use>
                        </mask>
                        <g id="Clip-2"></g>
                        <path d="M56.0534137,13.6644061 C54.5682707,11.9637531 35.2631859,11.6808755 34.372455,13.6644061 C34.0441976,14.4012429 35.3838427,17.0013449 37.3054793,19.9825694 L24.8565387,28.5874673 L15.7061414,14.5570796 C18.7190122,12.4007735 21.050527,10.3952224 21.050527,9.64483469 C21.050527,7.66130408 4.41940943,-0.560777551 2.63794756,0.855304082 C0.856485699,2.27307959 0.560166843,20.7024673 2.63794756,21.5527939 C3.4736732,21.8949571 6.60542638,20.361998 10.0547908,18.2768347 L20.7861467,31.3993041 L11.4210514,37.8716102 C9.56329184,35.4561408 7.77473252,33.5115694 7.13596133,33.5115694 C5.55322828,33.5115694 -0.997725106,45.5906102 0.128996292,46.8830388 C1.25926642,48.1788551 15.9456806,48.3939776 16.6234878,46.8830388 C16.9198067,46.2258143 15.4506329,43.5935286 13.5698067,40.8375898 L23.6464221,34.8988551 L30.6675821,43.4851204 C27.8587632,45.4110592 25.4935355,47.3471612 25.4935355,48.0077735 C25.4935355,49.5373449 38.2902516,55.8622837 39.6618353,54.7731204 C41.033419,53.6805694 41.2605376,39.5011204 39.6618353,38.8455898 C38.9751563,38.5644061 36.2727993,39.9296714 33.4089751,41.6997735 L27.4950185,32.6324469 L40.7087103,24.8473857 C43.322349,28.3215286 45.9484084,31.2434673 46.8462368,31.2434673 C48.9240175,31.2434673 57.5385567,15.3667531 56.0534137,13.6644061" id="Fill-1" fill="#684E21" sketch:type="MSShapeGroup" mask="url(#mask-2)"></path>
                    </g>
                    <ellipse id="Oval-1-Copy" stroke="#684E21" stroke-width="4" sketch:type="MSShapeGroup" cx="52.0833333" cy="50" rx="52.0833333" ry="50"></ellipse>
                </g>
            </g>
        </g>
    </g>
</svg>