<?xml version="1.0" encoding="UTF-8" standalone="no"?>
<svg width="122px" height="122px" viewBox="0 0 122 122" version="1.1" xmlns="http://www.w3.org/2000/svg" xmlns:xlink="http://www.w3.org/1999/xlink" xmlns:sketch="http://www.bohemiancoding.com/sketch/ns">
    <!-- Generator: Sketch 3.4 (15575) - http://www.bohemiancoding.com/sketch -->
    <title>planning_section</title>
    <desc>Created with Sketch.</desc>
    <defs>
        <path id="path-1" d="M0,0.692183673 L53.9753136,0.692183673 L53.9753136,54.8979592 L0,54.8979592"></path>
    </defs>
    <g id="desktop" stroke="none" stroke-width="1" fill="none" fill-rule="evenodd" sketch:type="MSPage">
        <g id="Desktop-Portrait" sketch:type="MSArtboardGroup" transform="translate(-279.000000, -1213.000000)">
            <g id="phone_nav" sketch:type="MSLayerGroup" transform="translate(114.000000, 1209.000000)">
                <g id="planning_section" transform="translate(167.000000, 6.000000)">
                    <text id="planing" sketch:type="MSTextLayer" font-family="SF Compact Display" font-size="16.9557147" font-style="condensed" font-weight="633" fill="#684E21">
                        <tspan x="24" y="95.6734694">PLANING</tspan>
                    </text>
                    <g id="planning_icon" transform="translate(32.516949, 18.000000)">
                        <mask id="mask-2" sketch:name="Clip 2" fill="white">
                            <use xlink:href="#path-1"></use>
                        </mask>
                        <g id="Clip-2"></g>
                        <path d="M53.8112771,13.6644061 C52.3855398,11.9637531 33.8526585,11.6808755 32.9975568,13.6644061 C32.6824297,14.4012429 33.968489,17.0013449 35.8132602,19.9825694 L23.8622771,28.5874673 L15.0778958,14.5570796 C17.9702517,12.4007735 20.2085059,10.3952224 20.2085059,9.64483469 C20.2085059,7.66130408 4.24263305,-0.560777551 2.53242966,0.855304082 C0.822226271,2.27307959 0.537760169,20.7024673 2.53242966,21.5527939 C3.33472627,21.8949571 6.34120932,20.361998 9.65259915,18.2768347 L19.9547008,31.3993041 L10.9642093,37.8716102 C9.18076017,35.4561408 7.46374322,33.5115694 6.85052288,33.5115694 C5.33109915,33.5115694 -0.957816102,45.5906102 0.123836441,46.8830388 C1.20889576,48.1788551 15.3078534,48.3939776 15.9585483,46.8830388 C16.2430144,46.2258143 14.8326076,43.5935286 13.0270144,40.8375898 L22.7005653,34.8988551 L29.4408788,43.4851204 C26.7444127,45.4110592 24.4737941,47.3471612 24.4737941,48.0077735 C24.4737941,49.5373449 36.7586415,55.8622837 38.0753619,54.7731204 C39.3920822,53.6805694 39.6101161,39.5011204 38.0753619,38.8455898 C37.41615,38.5644061 34.8218873,39.9296714 32.0726161,41.6997735 L26.3952178,32.6324469 L39.0803619,24.8473857 C41.5894551,28.3215286 44.110472,31.2434673 44.9723873,31.2434673 C46.9670568,31.2434673 55.2370144,15.3667531 53.8112771,13.6644061" id="Fill-1" fill="#684E21" sketch:type="MSShapeGroup" mask="url(#mask-2)"></path>
                    </g>
                    <circle id="Oval-1-Copy" stroke="#684E21" stroke-width="4" sketch:type="MSShapeGroup" cx="59" cy="59" r="59"></circle>
                </g>
            </g>
        </g>
    </g>
</svg>