<?xml version="1.0" encoding="UTF-8" standalone="no"?>
<svg width="104px" height="104px" viewBox="0 0 104 104" version="1.1" xmlns="http://www.w3.org/2000/svg" xmlns:xlink="http://www.w3.org/1999/xlink" xmlns:sketch="http://www.bohemiancoding.com/sketch/ns">
    <!-- Generator: Sketch 3.4.2 (15855) - http://www.bohemiancoding.com/sketch -->
    <title>strategy_section</title>
    <desc>Created with Sketch.</desc>
    <defs>
        <path id="path-1" d="M0,0.163054126 L63.0254237,0.163054126 L63.0254237,45.7346939 L0,45.7346939"></path>
    </defs>
    <g id="desktop" stroke="none" stroke-width="1" fill="none" fill-rule="evenodd" sketch:type="MSPage">
        <g id="Desktop-Portrait" sketch:type="MSArtboardGroup" transform="translate(-439.000000, -1208.000000)">
            <g id="phone_nav" sketch:type="MSLayerGroup" transform="translate(123.000000, 1209.000000)">
                <g id="strategy_section" transform="translate(318.000000, 1.000000)">
                    <g id="Page-1" transform="translate(18.813559, 22.000000)">
                        <mask id="mask-2" sketch:name="Clip 2" fill="white">
                            <use xlink:href="#path-1"></use>
                        </mask>
                        <g id="Clip-2"></g>
                        <path d="M62.0158352,33.8872209 C61.4407282,33.225062 59.3648283,32.8929884 56.9698622,32.8611729 C57.0309181,29.7472368 57.688746,23.5173761 56.4577807,22.4356512 C55.7507142,21.8172386 44.7074782,20.9761179 34.0758771,21.5706689 L34.3870651,16.9932226 C37.6230267,16.9355571 40.423719,16.6293335 41.0776077,15.9691632 C42.6965733,14.334645 42.9683704,3.69436903 41.0776077,1.51103452 C39.1848755,-0.6723 24.8623479,-0.125472138 22.6997881,2.60270177 C20.5372282,5.33087569 20.8090254,14.8794844 22.6997881,15.9691632 C23.4462454,16.4006601 26.2173945,16.746653 29.3962394,16.9057302 L29.6463715,21.8371232 C18.1324144,22.5728553 6.99267076,23.636684 6.55740143,24.3962776 C5.90745175,25.5336796 6.4983151,30.4173495 6.86858946,33.0003655 C4.24909529,33.2529005 1.86594645,33.8355208 1.16478861,34.7223761 C-0.489628761,36.8082759 -0.282826589,44.1119076 1.16478861,44.9450744 C2.60846472,45.7802297 13.9727364,46.1978074 15.2135495,44.9450744 C16.4543625,43.6923415 16.6611647,35.5575314 15.2135495,33.8872209 C14.6167775,33.1972235 12.3852836,32.8631614 9.86229709,32.8591845 C9.62989084,31.0019582 9.31082463,27.4266982 10.1281856,26.5855776 C10.6639017,26.0387497 20.0468117,25.3706255 29.8059046,24.9928171 L30.2175394,33.054054 C27.8087865,33.3304507 25.6856175,33.8931862 25.0297592,34.7223761 C23.3753418,36.8082759 23.582144,44.1119076 25.0297592,44.9450744 C26.4754049,45.7802297 37.8416461,46.1978074 39.0785201,44.9450744 C40.3193331,43.6923415 40.5261353,35.5575314 39.0785201,33.8872209 C38.4482658,33.1594427 36.0020916,32.8293575 33.3097243,32.8591845 L33.8533185,24.855613 C43.1082081,24.5792164 52.7491284,24.5672856 53.2060627,25.2811445 C53.9190378,26.390708 54.2715863,30.419338 54.0253932,33.0699618 C51.4295336,33.3244853 48.6642931,33.8434746 47.9651048,34.7223761 C46.3106874,36.8082759 46.5194592,44.1119076 47.9651048,44.9450744 C49.41272,45.7802297 60.7769917,46.1978074 62.0158352,44.9450744 C63.2566483,43.6923415 63.4614809,35.5575314 62.0158352,33.8872209" id="Fill-1" fill="#684E21" sketch:type="MSShapeGroup" mask="url(#mask-2)"></path>
                    </g>
                    <path d="M50,100 C64.3457823,100 77.2804659,93.9583682 86.3984577,84.2806978 C94.8317144,75.3297926 100,63.2684552 100,50 C100,22.3857625 77.6142375,0 50,0 C22.3857625,0 0,22.3857625 0,50 C0,77.6142375 22.3857625,100 50,100 Z" id="Oval-1-Copy-2" stroke="#684E21" stroke-width="4" sketch:type="MSShapeGroup"></path>
                </g>
            </g>
        </g>
    </g>
</svg>